<svg xmlns="http://www.w3.org/2000/svg" width="209.175" height="185.934" viewBox="0 0 209.175 185.934">
  <path id="shopping-cart" d="M191.788,109.424l17.167-75.536a8.716,8.716,0,0,0-8.5-10.647H57.817L54.488,6.969A8.715,8.715,0,0,0,45.949,0H8.716A8.716,8.716,0,0,0,0,8.716v5.81a8.716,8.716,0,0,0,8.716,8.716H34.094L59.6,147.961a20.339,20.339,0,1,0,24.347,3.11h76.134a20.331,20.331,0,1,0,23.1-3.779l2-8.816a8.716,8.716,0,0,0-8.5-10.647H79.21l-2.377-11.621H183.289A8.715,8.715,0,0,0,191.788,109.424Z" fill="#fff"/>
</svg>
